<?xml version="1.0" standalone="no"?>
<!DOCTYPE svg PUBLIC "-//W3C//DTD SVG 20010904//EN"
 "http://www.w3.org/TR/2001/REC-SVG-20010904/DTD/svg10.dtd">
<svg version="1.0" xmlns="http://www.w3.org/2000/svg"
 width="300.000000pt" height="300.000000pt" viewBox="0 0 300.000000 300.000000"
 preserveAspectRatio="xMidYMid meet">
<metadata>
Created by potrace 1.10, written by Peter Selinger 2001-2011
</metadata>
<g transform="translate(0.000000,300.000000) scale(0.100000,-0.100000)"
fill="#006eff" stroke="none">
<path d="M1350 2475 c-239 -42 -458 -178 -596 -372 -47 -64 -114 -199 -134
-270 -13 -41 -13 -42 -69 -49 -77 -9 -147 -40 -174 -78 -20 -28 -22 -42 -20
-141 3 -245 75 -400 199 -435 54 -16 164 -19 236 -7 l48 8 -26 40 c-74 118
-109 268 -102 440 9 203 85 375 233 523 309 310 806 310 1118 1 247 -244 308
-632 147 -932 l-39 -72 37 -8 c58 -11 192 -8 242 6 61 17 131 90 159 165 30
80 43 182 39 296 -3 89 -6 101 -28 126 -33 35 -92 61 -161 69 l-57 7 -31 87
c-148 414 -589 671 -1021 596z"/>
<path d="M1340 2217 l-45 -12 -5 -73 -5 -72 -53 46 -54 47 -32 -19 c-18 -10
-47 -31 -65 -46 l-32 -27 31 -62 c17 -33 29 -63 26 -66 -3 -3 -32 4 -64 16
-33 11 -63 21 -68 21 -10 0 -84 -111 -84 -126 0 -5 22 -27 50 -49 27 -22 49
-45 50 -51 0 -6 -28 -14 -67 -17 -37 -4 -71 -11 -76 -16 -5 -5 -9 -39 -10 -76
l-2 -68 62 -21 c34 -12 65 -24 68 -28 4 -4 -15 -18 -42 -32 -91 -47 -89 -43
-63 -122 42 -129 15 -111 339 -218 159 -53 295 -96 302 -96 8 0 145 43 306 97
l292 97 25 55 c13 31 29 74 35 96 12 46 10 49 -71 91 -27 13 -48 28 -48 33 0
4 30 17 68 28 l67 19 -2 69 c-2 38 -7 73 -11 77 -5 5 -36 12 -68 14 -82 8 -94
12 -73 27 9 7 35 29 58 50 l42 38 -26 47 c-49 89 -44 86 -121 63 -38 -11 -69
-19 -71 -17 -2 2 8 29 23 60 14 31 23 63 20 71 -6 18 -96 84 -114 85 -7 0 -35
-21 -62 -46 l-50 -47 0 72 c0 69 -1 72 -27 82 -16 6 -52 11 -81 12 l-54 2 -20
-50 c-11 -27 -23 -54 -28 -59 -6 -5 -20 16 -36 52 -25 57 -29 62 -58 61 -17 0
-51 -6 -76 -12z"/>
<path d="M1037 977 c66 -67 198 -200 294 -294 l174 -173 292 292 c161 161 291
293 290 295 -2 1 -134 -41 -294 -94 l-291 -97 -103 34 c-57 18 -189 62 -293
96 l-189 63 120 -122z"/>
</g>
</svg>
